<mxfile host="app.diagrams.net" modified="2020-08-16T14:55:24.959Z" agent="5.0 (Macintosh; Intel Mac OS X 10_14_6) AppleWebKit/537.36 (KHTML, like Gecko) Chrome/84.0.4147.125 Safari/537.36" etag="vr79Qa5WMwfYFTtFPFtv" version="13.6.2" type="github">
  <diagram id="zi5aRT8kiGiXFnjTw55O" name="Page-1">
    <mxGraphModel dx="1379" dy="855" grid="0" gridSize="10" guides="1" tooltips="1" connect="1" arrows="1" fold="1" page="1" pageScale="1" pageWidth="827" pageHeight="1169" math="0" shadow="0">
      <root>
        <mxCell id="0" />
        <mxCell id="1" parent="0" />
        <mxCell id="lGFkhYDXvEJLOsnuI2G--160" value="" style="rounded=1;whiteSpace=wrap;html=1;fillColor=none;dashed=1;" vertex="1" parent="1">
          <mxGeometry x="38" y="1527.94" width="434" height="238" as="geometry" />
        </mxCell>
        <mxCell id="lGFkhYDXvEJLOsnuI2G--85" style="edgeStyle=orthogonalEdgeStyle;rounded=0;orthogonalLoop=1;jettySize=auto;html=1;exitX=0.5;exitY=0;exitDx=0;exitDy=0;entryX=0.5;entryY=1;entryDx=0;entryDy=0;" edge="1" parent="1" source="lGFkhYDXvEJLOsnuI2G--78" target="lGFkhYDXvEJLOsnuI2G--77">
          <mxGeometry relative="1" as="geometry" />
        </mxCell>
        <mxCell id="lGFkhYDXvEJLOsnuI2G--78" value="" style="rounded=1;whiteSpace=wrap;html=1;fillColor=none;dashed=1;" vertex="1" parent="1">
          <mxGeometry x="542" y="867" width="334" height="238" as="geometry" />
        </mxCell>
        <mxCell id="lGFkhYDXvEJLOsnuI2G--49" value="" style="rounded=1;whiteSpace=wrap;html=1;fillColor=none;" vertex="1" parent="1">
          <mxGeometry x="149" y="37" width="769" height="80" as="geometry" />
        </mxCell>
        <mxCell id="lGFkhYDXvEJLOsnuI2G--48" value="" style="rounded=1;whiteSpace=wrap;html=1;fillColor=none;" vertex="1" parent="1">
          <mxGeometry x="152" y="160" width="769" height="80" as="geometry" />
        </mxCell>
        <mxCell id="lGFkhYDXvEJLOsnuI2G--1" value="" style="rounded=1;whiteSpace=wrap;html=1;fillColor=none;" vertex="1" parent="1">
          <mxGeometry x="280" y="280" width="640" height="80" as="geometry" />
        </mxCell>
        <mxCell id="lGFkhYDXvEJLOsnuI2G--2" value="数据应用单位" style="rounded=0;whiteSpace=wrap;html=1;" vertex="1" parent="1">
          <mxGeometry x="201" y="57" width="120" height="40" as="geometry" />
        </mxCell>
        <mxCell id="lGFkhYDXvEJLOsnuI2G--3" value="数据应用单位" style="rounded=0;whiteSpace=wrap;html=1;" vertex="1" parent="1">
          <mxGeometry x="385" y="57" width="120" height="40" as="geometry" />
        </mxCell>
        <mxCell id="lGFkhYDXvEJLOsnuI2G--4" value="数据应用单位" style="rounded=0;whiteSpace=wrap;html=1;" vertex="1" parent="1">
          <mxGeometry x="571" y="57" width="120" height="40" as="geometry" />
        </mxCell>
        <mxCell id="lGFkhYDXvEJLOsnuI2G--5" value="数据应用单位" style="rounded=0;whiteSpace=wrap;html=1;" vertex="1" parent="1">
          <mxGeometry x="748" y="57" width="120" height="40" as="geometry" />
        </mxCell>
        <mxCell id="lGFkhYDXvEJLOsnuI2G--6" value="身份认证" style="rounded=0;whiteSpace=wrap;html=1;" vertex="1" parent="1">
          <mxGeometry x="203" y="180" width="120" height="40" as="geometry" />
        </mxCell>
        <mxCell id="lGFkhYDXvEJLOsnuI2G--7" value="数据汇交" style="rounded=0;whiteSpace=wrap;html=1;" vertex="1" parent="1">
          <mxGeometry x="387" y="177" width="120" height="40" as="geometry" />
        </mxCell>
        <mxCell id="lGFkhYDXvEJLOsnuI2G--8" value="数据管理" style="rounded=0;whiteSpace=wrap;html=1;" vertex="1" parent="1">
          <mxGeometry x="575" y="180" width="120" height="40" as="geometry" />
        </mxCell>
        <mxCell id="lGFkhYDXvEJLOsnuI2G--9" value="数据统计分析" style="rounded=0;whiteSpace=wrap;html=1;" vertex="1" parent="1">
          <mxGeometry x="755" y="180" width="120" height="40" as="geometry" />
        </mxCell>
        <mxCell id="lGFkhYDXvEJLOsnuI2G--10" value="数据运营管理" style="rounded=0;whiteSpace=wrap;html=1;" vertex="1" parent="1">
          <mxGeometry x="160" y="280" width="40" height="180" as="geometry" />
        </mxCell>
        <mxCell id="lGFkhYDXvEJLOsnuI2G--11" value="数据安全审计" style="rounded=0;whiteSpace=wrap;html=1;" vertex="1" parent="1">
          <mxGeometry x="220" y="280" width="40" height="180" as="geometry" />
        </mxCell>
        <mxCell id="lGFkhYDXvEJLOsnuI2G--12" value="服务创建" style="rounded=0;whiteSpace=wrap;html=1;" vertex="1" parent="1">
          <mxGeometry x="380" y="300" width="120" height="40" as="geometry" />
        </mxCell>
        <mxCell id="lGFkhYDXvEJLOsnuI2G--13" value="服务授权" style="rounded=0;whiteSpace=wrap;html=1;" vertex="1" parent="1">
          <mxGeometry x="510" y="300" width="120" height="40" as="geometry" />
        </mxCell>
        <mxCell id="lGFkhYDXvEJLOsnuI2G--14" value="实时数据服务" style="rounded=0;whiteSpace=wrap;html=1;" vertex="1" parent="1">
          <mxGeometry x="640" y="300" width="120" height="40" as="geometry" />
        </mxCell>
        <mxCell id="lGFkhYDXvEJLOsnuI2G--15" value="离线数据服务" style="rounded=0;whiteSpace=wrap;html=1;" vertex="1" parent="1">
          <mxGeometry x="770" y="300" width="120" height="40" as="geometry" />
        </mxCell>
        <mxCell id="lGFkhYDXvEJLOsnuI2G--16" value="数据服务" style="text;html=1;strokeColor=none;fillColor=none;align=center;verticalAlign=middle;whiteSpace=wrap;rounded=0;" vertex="1" parent="1">
          <mxGeometry x="300" y="300" width="70" height="40" as="geometry" />
        </mxCell>
        <mxCell id="lGFkhYDXvEJLOsnuI2G--17" value="" style="rounded=1;whiteSpace=wrap;html=1;fillColor=none;" vertex="1" parent="1">
          <mxGeometry x="280" y="380" width="640" height="80" as="geometry" />
        </mxCell>
        <mxCell id="lGFkhYDXvEJLOsnuI2G--18" value="元数据" style="rounded=0;whiteSpace=wrap;html=1;" vertex="1" parent="1">
          <mxGeometry x="380" y="400" width="120" height="40" as="geometry" />
        </mxCell>
        <mxCell id="lGFkhYDXvEJLOsnuI2G--19" value="实体数据" style="rounded=0;whiteSpace=wrap;html=1;" vertex="1" parent="1">
          <mxGeometry x="510" y="400" width="120" height="40" as="geometry" />
        </mxCell>
        <mxCell id="lGFkhYDXvEJLOsnuI2G--20" value="数据标准" style="rounded=0;whiteSpace=wrap;html=1;" vertex="1" parent="1">
          <mxGeometry x="640" y="400" width="120" height="40" as="geometry" />
        </mxCell>
        <mxCell id="lGFkhYDXvEJLOsnuI2G--21" value="数据安全" style="rounded=0;whiteSpace=wrap;html=1;" vertex="1" parent="1">
          <mxGeometry x="770" y="400" width="120" height="40" as="geometry" />
        </mxCell>
        <mxCell id="lGFkhYDXvEJLOsnuI2G--22" value="数据资产" style="text;html=1;strokeColor=none;fillColor=none;align=center;verticalAlign=middle;whiteSpace=wrap;rounded=0;" vertex="1" parent="1">
          <mxGeometry x="300" y="400" width="70" height="40" as="geometry" />
        </mxCell>
        <mxCell id="lGFkhYDXvEJLOsnuI2G--23" value="数据服务层" style="text;html=1;strokeColor=none;fillColor=none;align=center;verticalAlign=middle;whiteSpace=wrap;rounded=0;" vertex="1" parent="1">
          <mxGeometry x="30" y="350" width="100" height="40" as="geometry" />
        </mxCell>
        <mxCell id="lGFkhYDXvEJLOsnuI2G--24" value="数据接入层" style="text;html=1;strokeColor=none;fillColor=none;align=center;verticalAlign=middle;whiteSpace=wrap;rounded=0;" vertex="1" parent="1">
          <mxGeometry x="30" y="180" width="100" height="40" as="geometry" />
        </mxCell>
        <mxCell id="lGFkhYDXvEJLOsnuI2G--25" value="数据用户层" style="text;html=1;strokeColor=none;fillColor=none;align=center;verticalAlign=middle;whiteSpace=wrap;rounded=0;" vertex="1" parent="1">
          <mxGeometry x="30" y="57" width="100" height="40" as="geometry" />
        </mxCell>
        <mxCell id="lGFkhYDXvEJLOsnuI2G--26" value="数据存储层" style="text;html=1;strokeColor=none;fillColor=none;align=center;verticalAlign=middle;whiteSpace=wrap;rounded=0;" vertex="1" parent="1">
          <mxGeometry x="30" y="545" width="100" height="40" as="geometry" />
        </mxCell>
        <mxCell id="lGFkhYDXvEJLOsnuI2G--27" value="" style="rounded=1;whiteSpace=wrap;html=1;fillColor=none;" vertex="1" parent="1">
          <mxGeometry x="280" y="520" width="190" height="100" as="geometry" />
        </mxCell>
        <mxCell id="lGFkhYDXvEJLOsnuI2G--28" value="存储监控报警" style="rounded=0;whiteSpace=wrap;html=1;" vertex="1" parent="1">
          <mxGeometry x="160" y="520" width="40" height="100" as="geometry" />
        </mxCell>
        <mxCell id="lGFkhYDXvEJLOsnuI2G--29" value="存储迁移备份" style="rounded=0;whiteSpace=wrap;html=1;" vertex="1" parent="1">
          <mxGeometry x="220" y="520" width="40" height="100" as="geometry" />
        </mxCell>
        <mxCell id="lGFkhYDXvEJLOsnuI2G--31" value="在线实时存储" style="text;html=1;strokeColor=none;fillColor=none;align=center;verticalAlign=middle;whiteSpace=wrap;rounded=0;" vertex="1" parent="1">
          <mxGeometry x="325" y="520" width="100" height="40" as="geometry" />
        </mxCell>
        <mxCell id="lGFkhYDXvEJLOsnuI2G--63" style="edgeStyle=orthogonalEdgeStyle;rounded=0;orthogonalLoop=1;jettySize=auto;html=1;exitX=0.5;exitY=1;exitDx=0;exitDy=0;" edge="1" parent="1" source="lGFkhYDXvEJLOsnuI2G--33" target="lGFkhYDXvEJLOsnuI2G--53">
          <mxGeometry relative="1" as="geometry" />
        </mxCell>
        <mxCell id="lGFkhYDXvEJLOsnuI2G--64" style="edgeStyle=orthogonalEdgeStyle;rounded=0;orthogonalLoop=1;jettySize=auto;html=1;exitX=0.5;exitY=1;exitDx=0;exitDy=0;entryX=0.5;entryY=0;entryDx=0;entryDy=0;entryPerimeter=0;" edge="1" parent="1" source="lGFkhYDXvEJLOsnuI2G--33" target="lGFkhYDXvEJLOsnuI2G--57">
          <mxGeometry relative="1" as="geometry" />
        </mxCell>
        <mxCell id="lGFkhYDXvEJLOsnuI2G--33" value="元信息DB" style="shape=datastore;whiteSpace=wrap;html=1;fillColor=none;" vertex="1" parent="1">
          <mxGeometry x="70" y="897" width="90" height="50" as="geometry" />
        </mxCell>
        <mxCell id="lGFkhYDXvEJLOsnuI2G--34" value="检索存储" style="shape=datastore;whiteSpace=wrap;html=1;fillColor=none;" vertex="1" parent="1">
          <mxGeometry x="600" y="915" width="90" height="50" as="geometry" />
        </mxCell>
        <mxCell id="lGFkhYDXvEJLOsnuI2G--40" value="OLTP 存储" style="shape=datastore;whiteSpace=wrap;html=1;fillColor=none;" vertex="1" parent="1">
          <mxGeometry x="330" y="560" width="90" height="50" as="geometry" />
        </mxCell>
        <mxCell id="lGFkhYDXvEJLOsnuI2G--41" value="" style="rounded=1;whiteSpace=wrap;html=1;fillColor=none;" vertex="1" parent="1">
          <mxGeometry x="510" y="520" width="190" height="100" as="geometry" />
        </mxCell>
        <mxCell id="lGFkhYDXvEJLOsnuI2G--42" value="大数据分析存储" style="text;html=1;strokeColor=none;fillColor=none;align=center;verticalAlign=middle;whiteSpace=wrap;rounded=0;" vertex="1" parent="1">
          <mxGeometry x="547" y="520" width="116" height="40" as="geometry" />
        </mxCell>
        <mxCell id="lGFkhYDXvEJLOsnuI2G--43" value="OLAP 存储" style="shape=datastore;whiteSpace=wrap;html=1;fillColor=none;" vertex="1" parent="1">
          <mxGeometry x="564" y="560" width="90" height="50" as="geometry" />
        </mxCell>
        <mxCell id="lGFkhYDXvEJLOsnuI2G--44" value="" style="rounded=1;whiteSpace=wrap;html=1;fillColor=none;" vertex="1" parent="1">
          <mxGeometry x="740" y="520" width="180" height="100" as="geometry" />
        </mxCell>
        <mxCell id="lGFkhYDXvEJLOsnuI2G--45" value="文件实体存储" style="text;html=1;strokeColor=none;fillColor=none;align=center;verticalAlign=middle;whiteSpace=wrap;rounded=0;" vertex="1" parent="1">
          <mxGeometry x="780" y="520" width="100" height="40" as="geometry" />
        </mxCell>
        <mxCell id="lGFkhYDXvEJLOsnuI2G--46" value="对象存储" style="shape=datastore;whiteSpace=wrap;html=1;fillColor=none;" vertex="1" parent="1">
          <mxGeometry x="785" y="560" width="90" height="50" as="geometry" />
        </mxCell>
        <mxCell id="lGFkhYDXvEJLOsnuI2G--47" value="" style="endArrow=none;dashed=1;html=1;dashPattern=1 3;strokeWidth=2;" edge="1" parent="1">
          <mxGeometry width="50" height="50" relative="1" as="geometry">
            <mxPoint x="38" y="258" as="sourcePoint" />
            <mxPoint x="919" y="258" as="targetPoint" />
          </mxGeometry>
        </mxCell>
        <mxCell id="lGFkhYDXvEJLOsnuI2G--50" value="" style="endArrow=none;dashed=1;html=1;dashPattern=1 3;strokeWidth=2;" edge="1" parent="1">
          <mxGeometry width="50" height="50" relative="1" as="geometry">
            <mxPoint x="39" y="137" as="sourcePoint" />
            <mxPoint x="920" y="137" as="targetPoint" />
          </mxGeometry>
        </mxCell>
        <mxCell id="lGFkhYDXvEJLOsnuI2G--51" value="" style="endArrow=none;dashed=1;html=1;dashPattern=1 3;strokeWidth=2;" edge="1" parent="1">
          <mxGeometry width="50" height="50" relative="1" as="geometry">
            <mxPoint x="40" y="492" as="sourcePoint" />
            <mxPoint x="921" y="492" as="targetPoint" />
          </mxGeometry>
        </mxCell>
        <mxCell id="lGFkhYDXvEJLOsnuI2G--71" style="edgeStyle=orthogonalEdgeStyle;rounded=0;orthogonalLoop=1;jettySize=auto;html=1;exitX=0.5;exitY=1;exitDx=0;exitDy=0;entryX=0.5;entryY=0;entryDx=0;entryDy=0;entryPerimeter=0;" edge="1" parent="1" source="lGFkhYDXvEJLOsnuI2G--52" target="lGFkhYDXvEJLOsnuI2G--65">
          <mxGeometry relative="1" as="geometry" />
        </mxCell>
        <mxCell id="lGFkhYDXvEJLOsnuI2G--72" style="edgeStyle=orthogonalEdgeStyle;rounded=0;orthogonalLoop=1;jettySize=auto;html=1;exitX=0.5;exitY=1;exitDx=0;exitDy=0;entryX=0.5;entryY=0;entryDx=0;entryDy=0;entryPerimeter=0;" edge="1" parent="1" source="lGFkhYDXvEJLOsnuI2G--52" target="lGFkhYDXvEJLOsnuI2G--68">
          <mxGeometry relative="1" as="geometry" />
        </mxCell>
        <mxCell id="lGFkhYDXvEJLOsnuI2G--52" value="元信息DB" style="shape=datastore;whiteSpace=wrap;html=1;fillColor=none;" vertex="1" parent="1">
          <mxGeometry x="307" y="900" width="90" height="50" as="geometry" />
        </mxCell>
        <mxCell id="lGFkhYDXvEJLOsnuI2G--53" value="Table" style="shape=note;whiteSpace=wrap;html=1;backgroundOutline=1;darkOpacity=0.05;fillColor=none;gradientColor=none;size=15;" vertex="1" parent="1">
          <mxGeometry x="25" y="1007" width="60" height="59" as="geometry" />
        </mxCell>
        <mxCell id="lGFkhYDXvEJLOsnuI2G--55" value="Table" style="shape=note;whiteSpace=wrap;html=1;backgroundOutline=1;darkOpacity=0.05;fillColor=none;gradientColor=none;size=15;" vertex="1" parent="1">
          <mxGeometry x="35" y="1017" width="60" height="59" as="geometry" />
        </mxCell>
        <mxCell id="lGFkhYDXvEJLOsnuI2G--56" value="Table" style="shape=note;whiteSpace=wrap;html=1;backgroundOutline=1;darkOpacity=0.05;size=15;" vertex="1" parent="1">
          <mxGeometry x="45" y="1027" width="60" height="59" as="geometry" />
        </mxCell>
        <mxCell id="lGFkhYDXvEJLOsnuI2G--57" value="Table" style="shape=note;whiteSpace=wrap;html=1;backgroundOutline=1;darkOpacity=0.05;fillColor=none;gradientColor=none;size=15;" vertex="1" parent="1">
          <mxGeometry x="142" y="1007" width="60" height="59" as="geometry" />
        </mxCell>
        <mxCell id="lGFkhYDXvEJLOsnuI2G--58" value="Table" style="shape=note;whiteSpace=wrap;html=1;backgroundOutline=1;darkOpacity=0.05;fillColor=none;gradientColor=none;size=15;" vertex="1" parent="1">
          <mxGeometry x="152" y="1017" width="60" height="59" as="geometry" />
        </mxCell>
        <mxCell id="lGFkhYDXvEJLOsnuI2G--59" value="Table" style="shape=note;whiteSpace=wrap;html=1;backgroundOutline=1;darkOpacity=0.05;size=15;" vertex="1" parent="1">
          <mxGeometry x="162" y="1027" width="60" height="59" as="geometry" />
        </mxCell>
        <mxCell id="lGFkhYDXvEJLOsnuI2G--61" style="edgeStyle=orthogonalEdgeStyle;rounded=0;orthogonalLoop=1;jettySize=auto;html=1;exitX=0.25;exitY=1;exitDx=0;exitDy=0;" edge="1" parent="1" source="lGFkhYDXvEJLOsnuI2G--60" target="lGFkhYDXvEJLOsnuI2G--33">
          <mxGeometry relative="1" as="geometry" />
        </mxCell>
        <mxCell id="lGFkhYDXvEJLOsnuI2G--62" style="edgeStyle=orthogonalEdgeStyle;rounded=0;orthogonalLoop=1;jettySize=auto;html=1;exitX=0.75;exitY=1;exitDx=0;exitDy=0;entryX=0.5;entryY=0;entryDx=0;entryDy=0;" edge="1" parent="1" source="lGFkhYDXvEJLOsnuI2G--60" target="lGFkhYDXvEJLOsnuI2G--52">
          <mxGeometry relative="1" as="geometry" />
        </mxCell>
        <mxCell id="lGFkhYDXvEJLOsnuI2G--95" style="edgeStyle=orthogonalEdgeStyle;rounded=0;orthogonalLoop=1;jettySize=auto;html=1;exitX=0.5;exitY=0;exitDx=0;exitDy=0;" edge="1" parent="1" source="lGFkhYDXvEJLOsnuI2G--60">
          <mxGeometry relative="1" as="geometry">
            <mxPoint x="240" y="708" as="targetPoint" />
          </mxGeometry>
        </mxCell>
        <mxCell id="lGFkhYDXvEJLOsnuI2G--96" value="元信息" style="edgeLabel;html=1;align=center;verticalAlign=middle;resizable=0;points=[];" vertex="1" connectable="0" parent="lGFkhYDXvEJLOsnuI2G--95">
          <mxGeometry x="0.2658" y="2" relative="1" as="geometry">
            <mxPoint as="offset" />
          </mxGeometry>
        </mxCell>
        <mxCell id="lGFkhYDXvEJLOsnuI2G--60" value="DB Proxy" style="shape=trapezoid;perimeter=trapezoidPerimeter;whiteSpace=wrap;html=1;fixedSize=1;fillColor=none;gradientColor=none;" vertex="1" parent="1">
          <mxGeometry x="180" y="787" width="120" height="35" as="geometry" />
        </mxCell>
        <mxCell id="lGFkhYDXvEJLOsnuI2G--65" value="Table" style="shape=note;whiteSpace=wrap;html=1;backgroundOutline=1;darkOpacity=0.05;fillColor=none;gradientColor=none;size=15;" vertex="1" parent="1">
          <mxGeometry x="260" y="1007" width="60" height="59" as="geometry" />
        </mxCell>
        <mxCell id="lGFkhYDXvEJLOsnuI2G--66" value="Table" style="shape=note;whiteSpace=wrap;html=1;backgroundOutline=1;darkOpacity=0.05;fillColor=none;gradientColor=none;size=15;" vertex="1" parent="1">
          <mxGeometry x="270" y="1017" width="60" height="59" as="geometry" />
        </mxCell>
        <mxCell id="lGFkhYDXvEJLOsnuI2G--67" value="Table" style="shape=note;whiteSpace=wrap;html=1;backgroundOutline=1;darkOpacity=0.05;size=15;" vertex="1" parent="1">
          <mxGeometry x="280" y="1027" width="60" height="59" as="geometry" />
        </mxCell>
        <mxCell id="lGFkhYDXvEJLOsnuI2G--68" value="Table" style="shape=note;whiteSpace=wrap;html=1;backgroundOutline=1;darkOpacity=0.05;fillColor=none;gradientColor=none;size=15;" vertex="1" parent="1">
          <mxGeometry x="377" y="1007" width="60" height="59" as="geometry" />
        </mxCell>
        <mxCell id="lGFkhYDXvEJLOsnuI2G--69" value="Table" style="shape=note;whiteSpace=wrap;html=1;backgroundOutline=1;darkOpacity=0.05;fillColor=none;gradientColor=none;size=15;" vertex="1" parent="1">
          <mxGeometry x="387" y="1017" width="60" height="59" as="geometry" />
        </mxCell>
        <mxCell id="lGFkhYDXvEJLOsnuI2G--70" value="Table" style="shape=note;whiteSpace=wrap;html=1;backgroundOutline=1;darkOpacity=0.05;size=15;" vertex="1" parent="1">
          <mxGeometry x="397" y="1027" width="60" height="59" as="geometry" />
        </mxCell>
        <mxCell id="lGFkhYDXvEJLOsnuI2G--82" style="edgeStyle=orthogonalEdgeStyle;rounded=0;orthogonalLoop=1;jettySize=auto;html=1;exitX=0.5;exitY=1;exitDx=0;exitDy=0;entryX=0;entryY=0.5;entryDx=0;entryDy=0;" edge="1" parent="1" source="lGFkhYDXvEJLOsnuI2G--73" target="lGFkhYDXvEJLOsnuI2G--80">
          <mxGeometry relative="1" as="geometry" />
        </mxCell>
        <mxCell id="lGFkhYDXvEJLOsnuI2G--84" value="binlog" style="edgeLabel;html=1;align=center;verticalAlign=middle;resizable=0;points=[];" vertex="1" connectable="0" parent="lGFkhYDXvEJLOsnuI2G--82">
          <mxGeometry x="0.1475" y="1" relative="1" as="geometry">
            <mxPoint as="offset" />
          </mxGeometry>
        </mxCell>
        <mxCell id="lGFkhYDXvEJLOsnuI2G--106" style="edgeStyle=orthogonalEdgeStyle;rounded=0;orthogonalLoop=1;jettySize=auto;html=1;exitX=0.5;exitY=1;exitDx=0;exitDy=0;entryX=0;entryY=0.5;entryDx=0;entryDy=0;" edge="1" parent="1" source="lGFkhYDXvEJLOsnuI2G--73" target="lGFkhYDXvEJLOsnuI2G--104">
          <mxGeometry relative="1" as="geometry" />
        </mxCell>
        <mxCell id="lGFkhYDXvEJLOsnuI2G--108" value="binlog" style="edgeLabel;html=1;align=center;verticalAlign=middle;resizable=0;points=[];" vertex="1" connectable="0" parent="lGFkhYDXvEJLOsnuI2G--106">
          <mxGeometry x="0.096" y="-2" relative="1" as="geometry">
            <mxPoint as="offset" />
          </mxGeometry>
        </mxCell>
        <mxCell id="lGFkhYDXvEJLOsnuI2G--73" value="" style="rounded=1;whiteSpace=wrap;html=1;fillColor=none;dashed=1;" vertex="1" parent="1">
          <mxGeometry x="11" y="872" width="456" height="238" as="geometry" />
        </mxCell>
        <mxCell id="lGFkhYDXvEJLOsnuI2G--74" value="检索存储" style="shape=datastore;whiteSpace=wrap;html=1;fillColor=none;" vertex="1" parent="1">
          <mxGeometry x="741" y="915" width="90" height="50" as="geometry" />
        </mxCell>
        <mxCell id="lGFkhYDXvEJLOsnuI2G--75" value="检索存储" style="shape=datastore;whiteSpace=wrap;html=1;fillColor=none;" vertex="1" parent="1">
          <mxGeometry x="600" y="1007" width="90" height="50" as="geometry" />
        </mxCell>
        <mxCell id="lGFkhYDXvEJLOsnuI2G--76" value="检索存储" style="shape=datastore;whiteSpace=wrap;html=1;fillColor=none;" vertex="1" parent="1">
          <mxGeometry x="743" y="1004" width="90" height="50" as="geometry" />
        </mxCell>
        <mxCell id="lGFkhYDXvEJLOsnuI2G--87" style="edgeStyle=orthogonalEdgeStyle;rounded=0;orthogonalLoop=1;jettySize=auto;html=1;exitX=0.25;exitY=0;exitDx=0;exitDy=0;entryX=0.75;entryY=0;entryDx=0;entryDy=0;dashed=1;" edge="1" parent="1" source="lGFkhYDXvEJLOsnuI2G--77" target="lGFkhYDXvEJLOsnuI2G--60">
          <mxGeometry relative="1" as="geometry">
            <Array as="points">
              <mxPoint x="679" y="706" />
              <mxPoint x="270" y="706" />
            </Array>
          </mxGeometry>
        </mxCell>
        <mxCell id="lGFkhYDXvEJLOsnuI2G--89" value="id 集合" style="edgeLabel;html=1;align=center;verticalAlign=middle;resizable=0;points=[];" vertex="1" connectable="0" parent="lGFkhYDXvEJLOsnuI2G--87">
          <mxGeometry x="-0.0474" y="1" relative="1" as="geometry">
            <mxPoint as="offset" />
          </mxGeometry>
        </mxCell>
        <mxCell id="lGFkhYDXvEJLOsnuI2G--77" value="数据检索" style="shape=trapezoid;perimeter=trapezoidPerimeter;whiteSpace=wrap;html=1;fixedSize=1;fillColor=none;gradientColor=none;" vertex="1" parent="1">
          <mxGeometry x="649" y="787" width="120" height="35" as="geometry" />
        </mxCell>
        <mxCell id="lGFkhYDXvEJLOsnuI2G--83" style="edgeStyle=orthogonalEdgeStyle;rounded=0;orthogonalLoop=1;jettySize=auto;html=1;exitX=1;exitY=0.5;exitDx=0;exitDy=0;entryX=0.5;entryY=1;entryDx=0;entryDy=0;" edge="1" parent="1" source="lGFkhYDXvEJLOsnuI2G--80" target="lGFkhYDXvEJLOsnuI2G--78">
          <mxGeometry relative="1" as="geometry" />
        </mxCell>
        <mxCell id="lGFkhYDXvEJLOsnuI2G--80" value="Logstash" style="shape=delay;whiteSpace=wrap;html=1;dashed=1;gradientColor=none;" vertex="1" parent="1">
          <mxGeometry x="464" y="1140" width="80" height="40" as="geometry" />
        </mxCell>
        <mxCell id="lGFkhYDXvEJLOsnuI2G--86" value="" style="endArrow=classic;html=1;entryX=0.75;entryY=0;entryDx=0;entryDy=0;" edge="1" parent="1" target="lGFkhYDXvEJLOsnuI2G--77">
          <mxGeometry width="50" height="50" relative="1" as="geometry">
            <mxPoint x="739" y="723" as="sourcePoint" />
            <mxPoint x="535" y="725" as="targetPoint" />
          </mxGeometry>
        </mxCell>
        <mxCell id="lGFkhYDXvEJLOsnuI2G--88" value="多条件查询" style="edgeLabel;html=1;align=center;verticalAlign=middle;resizable=0;points=[];" vertex="1" connectable="0" parent="lGFkhYDXvEJLOsnuI2G--86">
          <mxGeometry x="-0.2187" y="2" relative="1" as="geometry">
            <mxPoint as="offset" />
          </mxGeometry>
        </mxCell>
        <mxCell id="lGFkhYDXvEJLOsnuI2G--90" value="元数据&lt;br&gt;MySQL" style="text;html=1;strokeColor=none;fillColor=none;align=center;verticalAlign=middle;whiteSpace=wrap;rounded=0;dashed=1;" vertex="1" parent="1">
          <mxGeometry x="180" y="878" width="110" height="47" as="geometry" />
        </mxCell>
        <mxCell id="lGFkhYDXvEJLOsnuI2G--91" value="元数据索引信息&lt;br&gt;ElasticSearch" style="text;html=1;strokeColor=none;fillColor=none;align=center;verticalAlign=middle;whiteSpace=wrap;rounded=0;dashed=1;" vertex="1" parent="1">
          <mxGeometry x="656" y="881" width="110" height="28" as="geometry" />
        </mxCell>
        <mxCell id="lGFkhYDXvEJLOsnuI2G--93" value="" style="endArrow=classic;html=1;" edge="1" parent="1">
          <mxGeometry width="50" height="50" relative="1" as="geometry">
            <mxPoint x="212" y="709" as="sourcePoint" />
            <mxPoint x="212" y="787" as="targetPoint" />
          </mxGeometry>
        </mxCell>
        <mxCell id="lGFkhYDXvEJLOsnuI2G--94" value="写入" style="edgeLabel;html=1;align=center;verticalAlign=middle;resizable=0;points=[];" vertex="1" connectable="0" parent="lGFkhYDXvEJLOsnuI2G--93">
          <mxGeometry x="-0.2187" y="2" relative="1" as="geometry">
            <mxPoint x="-24" y="-1" as="offset" />
          </mxGeometry>
        </mxCell>
        <mxCell id="lGFkhYDXvEJLOsnuI2G--97" value="" style="rounded=1;whiteSpace=wrap;html=1;fillColor=none;dashed=1;" vertex="1" parent="1">
          <mxGeometry x="949" y="865" width="347" height="238" as="geometry" />
        </mxCell>
        <mxCell id="lGFkhYDXvEJLOsnuI2G--117" style="edgeStyle=orthogonalEdgeStyle;rounded=0;orthogonalLoop=1;jettySize=auto;html=1;exitX=0.5;exitY=0;exitDx=0;exitDy=0;entryX=0.5;entryY=1;entryDx=0;entryDy=0;" edge="1" parent="1" source="lGFkhYDXvEJLOsnuI2G--100" target="lGFkhYDXvEJLOsnuI2G--114">
          <mxGeometry relative="1" as="geometry" />
        </mxCell>
        <mxCell id="lGFkhYDXvEJLOsnuI2G--100" value="离线分析存储&lt;br&gt;Hive" style="shape=datastore;whiteSpace=wrap;html=1;fillColor=none;" vertex="1" parent="1">
          <mxGeometry x="979" y="955" width="128" height="84" as="geometry" />
        </mxCell>
        <mxCell id="lGFkhYDXvEJLOsnuI2G--102" value="大数据分析存储" style="text;html=1;strokeColor=none;fillColor=none;align=center;verticalAlign=middle;whiteSpace=wrap;rounded=0;dashed=1;" vertex="1" parent="1">
          <mxGeometry x="1061" y="878" width="110" height="20" as="geometry" />
        </mxCell>
        <mxCell id="lGFkhYDXvEJLOsnuI2G--107" style="edgeStyle=orthogonalEdgeStyle;rounded=0;orthogonalLoop=1;jettySize=auto;html=1;exitX=1;exitY=0.5;exitDx=0;exitDy=0;entryX=0.5;entryY=1;entryDx=0;entryDy=0;" edge="1" parent="1" source="lGFkhYDXvEJLOsnuI2G--104" target="lGFkhYDXvEJLOsnuI2G--97">
          <mxGeometry relative="1" as="geometry" />
        </mxCell>
        <mxCell id="lGFkhYDXvEJLOsnuI2G--104" value="ETL" style="shape=delay;whiteSpace=wrap;html=1;dashed=1;gradientColor=none;" vertex="1" parent="1">
          <mxGeometry x="690" y="1212" width="80" height="40" as="geometry" />
        </mxCell>
        <mxCell id="lGFkhYDXvEJLOsnuI2G--116" style="edgeStyle=orthogonalEdgeStyle;rounded=0;orthogonalLoop=1;jettySize=auto;html=1;exitX=0.5;exitY=0;exitDx=0;exitDy=0;entryX=0.5;entryY=1;entryDx=0;entryDy=0;" edge="1" parent="1" source="lGFkhYDXvEJLOsnuI2G--113" target="lGFkhYDXvEJLOsnuI2G--115">
          <mxGeometry relative="1" as="geometry" />
        </mxCell>
        <mxCell id="lGFkhYDXvEJLOsnuI2G--113" value="在线分析存储&lt;br&gt;ClickHouse" style="shape=datastore;whiteSpace=wrap;html=1;fillColor=none;" vertex="1" parent="1">
          <mxGeometry x="1143" y="955" width="128" height="84" as="geometry" />
        </mxCell>
        <mxCell id="lGFkhYDXvEJLOsnuI2G--120" style="edgeStyle=orthogonalEdgeStyle;rounded=0;orthogonalLoop=1;jettySize=auto;html=1;exitX=0.25;exitY=0;exitDx=0;exitDy=0;" edge="1" parent="1" source="lGFkhYDXvEJLOsnuI2G--114">
          <mxGeometry relative="1" as="geometry">
            <mxPoint x="1012.7647058823532" y="719.1176470588236" as="targetPoint" />
          </mxGeometry>
        </mxCell>
        <mxCell id="lGFkhYDXvEJLOsnuI2G--121" value="结果集" style="edgeLabel;html=1;align=center;verticalAlign=middle;resizable=0;points=[];" vertex="1" connectable="0" parent="lGFkhYDXvEJLOsnuI2G--120">
          <mxGeometry x="0.0052" y="4" relative="1" as="geometry">
            <mxPoint x="2" y="4" as="offset" />
          </mxGeometry>
        </mxCell>
        <mxCell id="lGFkhYDXvEJLOsnuI2G--114" value="离线大数据查询" style="shape=trapezoid;perimeter=trapezoidPerimeter;whiteSpace=wrap;html=1;fixedSize=1;fillColor=none;gradientColor=none;" vertex="1" parent="1">
          <mxGeometry x="983" y="787" width="120" height="35" as="geometry" />
        </mxCell>
        <mxCell id="lGFkhYDXvEJLOsnuI2G--128" style="edgeStyle=orthogonalEdgeStyle;rounded=0;orthogonalLoop=1;jettySize=auto;html=1;exitX=0.25;exitY=0;exitDx=0;exitDy=0;" edge="1" parent="1" source="lGFkhYDXvEJLOsnuI2G--115">
          <mxGeometry relative="1" as="geometry">
            <mxPoint x="1177.4705882352941" y="720.2941176470588" as="targetPoint" />
          </mxGeometry>
        </mxCell>
        <mxCell id="lGFkhYDXvEJLOsnuI2G--129" value="结果集" style="edgeLabel;html=1;align=center;verticalAlign=middle;resizable=0;points=[];" vertex="1" connectable="0" parent="lGFkhYDXvEJLOsnuI2G--128">
          <mxGeometry x="0.0053" y="-4" relative="1" as="geometry">
            <mxPoint x="-3" y="5" as="offset" />
          </mxGeometry>
        </mxCell>
        <mxCell id="lGFkhYDXvEJLOsnuI2G--115" value="实时大数据查询" style="shape=trapezoid;perimeter=trapezoidPerimeter;whiteSpace=wrap;html=1;fixedSize=1;fillColor=none;gradientColor=none;" vertex="1" parent="1">
          <mxGeometry x="1147" y="787" width="120" height="35" as="geometry" />
        </mxCell>
        <mxCell id="lGFkhYDXvEJLOsnuI2G--118" value="" style="endArrow=classic;html=1;entryX=0.75;entryY=0;entryDx=0;entryDy=0;" edge="1" parent="1">
          <mxGeometry width="50" height="50" relative="1" as="geometry">
            <mxPoint x="1069" y="723" as="sourcePoint" />
            <mxPoint x="1069" y="787" as="targetPoint" />
          </mxGeometry>
        </mxCell>
        <mxCell id="lGFkhYDXvEJLOsnuI2G--119" value="多条件查询" style="edgeLabel;html=1;align=center;verticalAlign=middle;resizable=0;points=[];" vertex="1" connectable="0" parent="lGFkhYDXvEJLOsnuI2G--118">
          <mxGeometry x="-0.2187" y="2" relative="1" as="geometry">
            <mxPoint as="offset" />
          </mxGeometry>
        </mxCell>
        <mxCell id="lGFkhYDXvEJLOsnuI2G--124" value="" style="endArrow=classic;html=1;entryX=0.75;entryY=0;entryDx=0;entryDy=0;" edge="1" parent="1">
          <mxGeometry width="50" height="50" relative="1" as="geometry">
            <mxPoint x="1238.9999999999995" y="716.88" as="sourcePoint" />
            <mxPoint x="1238.9999999999995" y="780.88" as="targetPoint" />
          </mxGeometry>
        </mxCell>
        <mxCell id="lGFkhYDXvEJLOsnuI2G--125" value="多条件查询" style="edgeLabel;html=1;align=center;verticalAlign=middle;resizable=0;points=[];" vertex="1" connectable="0" parent="lGFkhYDXvEJLOsnuI2G--124">
          <mxGeometry x="-0.2187" y="2" relative="1" as="geometry">
            <mxPoint as="offset" />
          </mxGeometry>
        </mxCell>
        <mxCell id="lGFkhYDXvEJLOsnuI2G--130" style="edgeStyle=orthogonalEdgeStyle;rounded=0;orthogonalLoop=1;jettySize=auto;html=1;exitX=0.5;exitY=0;exitDx=0;exitDy=0;entryX=0.5;entryY=1;entryDx=0;entryDy=0;" edge="1" parent="1" source="lGFkhYDXvEJLOsnuI2G--131" target="lGFkhYDXvEJLOsnuI2G--166">
          <mxGeometry relative="1" as="geometry" />
        </mxCell>
        <mxCell id="lGFkhYDXvEJLOsnuI2G--131" value="" style="rounded=1;whiteSpace=wrap;html=1;fillColor=none;dashed=1;" vertex="1" parent="1">
          <mxGeometry x="547" y="1522.94" width="334" height="238" as="geometry" />
        </mxCell>
        <mxCell id="lGFkhYDXvEJLOsnuI2G--132" style="edgeStyle=orthogonalEdgeStyle;rounded=0;orthogonalLoop=1;jettySize=auto;html=1;exitX=0.5;exitY=1;exitDx=0;exitDy=0;" edge="1" parent="1" source="lGFkhYDXvEJLOsnuI2G--134">
          <mxGeometry relative="1" as="geometry">
            <mxPoint x="176.52941176470608" y="1663.94" as="targetPoint" />
          </mxGeometry>
        </mxCell>
        <mxCell id="lGFkhYDXvEJLOsnuI2G--133" style="edgeStyle=orthogonalEdgeStyle;rounded=0;orthogonalLoop=1;jettySize=auto;html=1;exitX=0.5;exitY=1;exitDx=0;exitDy=0;entryX=0.5;entryY=0;entryDx=0;entryDy=0;entryPerimeter=0;" edge="1" parent="1" source="lGFkhYDXvEJLOsnuI2G--134">
          <mxGeometry relative="1" as="geometry">
            <mxPoint x="293.5" y="1663.94" as="targetPoint" />
          </mxGeometry>
        </mxCell>
        <mxCell id="lGFkhYDXvEJLOsnuI2G--134" value="元信息DB" style="shape=datastore;whiteSpace=wrap;html=1;fillColor=none;" vertex="1" parent="1">
          <mxGeometry x="200" y="1553.94" width="90" height="50" as="geometry" />
        </mxCell>
        <mxCell id="lGFkhYDXvEJLOsnuI2G--135" value="检索存储" style="shape=datastore;whiteSpace=wrap;html=1;fillColor=none;" vertex="1" parent="1">
          <mxGeometry x="605" y="1570.94" width="90" height="50" as="geometry" />
        </mxCell>
        <mxCell id="lGFkhYDXvEJLOsnuI2G--141" value="Table" style="shape=note;whiteSpace=wrap;html=1;backgroundOutline=1;darkOpacity=0.05;size=15;" vertex="1" parent="1">
          <mxGeometry x="143" y="1662.94" width="60" height="59" as="geometry" />
        </mxCell>
        <mxCell id="lGFkhYDXvEJLOsnuI2G--144" value="Table" style="shape=note;whiteSpace=wrap;html=1;backgroundOutline=1;darkOpacity=0.05;size=15;" vertex="1" parent="1">
          <mxGeometry x="265" y="1662.94" width="60" height="59" as="geometry" />
        </mxCell>
        <mxCell id="lGFkhYDXvEJLOsnuI2G--147" style="edgeStyle=orthogonalEdgeStyle;rounded=0;orthogonalLoop=1;jettySize=auto;html=1;exitX=0.5;exitY=0;exitDx=0;exitDy=0;" edge="1" parent="1" source="lGFkhYDXvEJLOsnuI2G--149">
          <mxGeometry relative="1" as="geometry">
            <mxPoint x="244.99999999999977" y="1363.94" as="targetPoint" />
          </mxGeometry>
        </mxCell>
        <mxCell id="lGFkhYDXvEJLOsnuI2G--148" value="元信息" style="edgeLabel;html=1;align=center;verticalAlign=middle;resizable=0;points=[];" vertex="1" connectable="0" parent="lGFkhYDXvEJLOsnuI2G--147">
          <mxGeometry x="0.2658" y="2" relative="1" as="geometry">
            <mxPoint as="offset" />
          </mxGeometry>
        </mxCell>
        <mxCell id="lGFkhYDXvEJLOsnuI2G--193" style="edgeStyle=orthogonalEdgeStyle;rounded=0;orthogonalLoop=1;jettySize=auto;html=1;exitX=0.5;exitY=1;exitDx=0;exitDy=0;entryX=0.5;entryY=0;entryDx=0;entryDy=0;" edge="1" parent="1" source="lGFkhYDXvEJLOsnuI2G--149" target="lGFkhYDXvEJLOsnuI2G--134">
          <mxGeometry relative="1" as="geometry" />
        </mxCell>
        <mxCell id="lGFkhYDXvEJLOsnuI2G--149" value="DB Proxy" style="shape=trapezoid;perimeter=trapezoidPerimeter;whiteSpace=wrap;html=1;fixedSize=1;fillColor=none;gradientColor=none;" vertex="1" parent="1">
          <mxGeometry x="185" y="1442.94" width="120" height="35" as="geometry" />
        </mxCell>
        <mxCell id="lGFkhYDXvEJLOsnuI2G--156" style="edgeStyle=orthogonalEdgeStyle;rounded=0;orthogonalLoop=1;jettySize=auto;html=1;exitX=1;exitY=0.5;exitDx=0;exitDy=0;entryX=0;entryY=0.5;entryDx=0;entryDy=0;" edge="1" parent="1" source="lGFkhYDXvEJLOsnuI2G--245" target="lGFkhYDXvEJLOsnuI2G--168">
          <mxGeometry relative="1" as="geometry" />
        </mxCell>
        <mxCell id="lGFkhYDXvEJLOsnuI2G--158" style="edgeStyle=orthogonalEdgeStyle;rounded=0;orthogonalLoop=1;jettySize=auto;html=1;exitX=1;exitY=0.5;exitDx=0;exitDy=0;entryX=0;entryY=0.5;entryDx=0;entryDy=0;" edge="1" parent="1" source="lGFkhYDXvEJLOsnuI2G--247" target="lGFkhYDXvEJLOsnuI2G--180">
          <mxGeometry relative="1" as="geometry" />
        </mxCell>
        <mxCell id="lGFkhYDXvEJLOsnuI2G--161" value="检索存储" style="shape=datastore;whiteSpace=wrap;html=1;fillColor=none;" vertex="1" parent="1">
          <mxGeometry x="746" y="1570.94" width="90" height="50" as="geometry" />
        </mxCell>
        <mxCell id="lGFkhYDXvEJLOsnuI2G--162" value="检索存储" style="shape=datastore;whiteSpace=wrap;html=1;fillColor=none;" vertex="1" parent="1">
          <mxGeometry x="605" y="1662.94" width="90" height="50" as="geometry" />
        </mxCell>
        <mxCell id="lGFkhYDXvEJLOsnuI2G--163" value="检索存储" style="shape=datastore;whiteSpace=wrap;html=1;fillColor=none;" vertex="1" parent="1">
          <mxGeometry x="748" y="1659.94" width="90" height="50" as="geometry" />
        </mxCell>
        <mxCell id="lGFkhYDXvEJLOsnuI2G--164" style="edgeStyle=orthogonalEdgeStyle;rounded=0;orthogonalLoop=1;jettySize=auto;html=1;exitX=0.25;exitY=0;exitDx=0;exitDy=0;entryX=0.75;entryY=0;entryDx=0;entryDy=0;dashed=1;" edge="1" parent="1" source="lGFkhYDXvEJLOsnuI2G--166" target="lGFkhYDXvEJLOsnuI2G--149">
          <mxGeometry relative="1" as="geometry">
            <Array as="points">
              <mxPoint x="684" y="1361.94" />
              <mxPoint x="275" y="1361.94" />
            </Array>
          </mxGeometry>
        </mxCell>
        <mxCell id="lGFkhYDXvEJLOsnuI2G--165" value="id 集合" style="edgeLabel;html=1;align=center;verticalAlign=middle;resizable=0;points=[];" vertex="1" connectable="0" parent="lGFkhYDXvEJLOsnuI2G--164">
          <mxGeometry x="-0.0474" y="1" relative="1" as="geometry">
            <mxPoint as="offset" />
          </mxGeometry>
        </mxCell>
        <mxCell id="lGFkhYDXvEJLOsnuI2G--166" value="数据检索" style="shape=trapezoid;perimeter=trapezoidPerimeter;whiteSpace=wrap;html=1;fixedSize=1;fillColor=none;gradientColor=none;" vertex="1" parent="1">
          <mxGeometry x="654" y="1442.94" width="120" height="35" as="geometry" />
        </mxCell>
        <mxCell id="lGFkhYDXvEJLOsnuI2G--167" style="edgeStyle=orthogonalEdgeStyle;rounded=0;orthogonalLoop=1;jettySize=auto;html=1;exitX=1;exitY=0.5;exitDx=0;exitDy=0;entryX=0.5;entryY=1;entryDx=0;entryDy=0;" edge="1" parent="1" source="lGFkhYDXvEJLOsnuI2G--168" target="lGFkhYDXvEJLOsnuI2G--131">
          <mxGeometry relative="1" as="geometry" />
        </mxCell>
        <mxCell id="lGFkhYDXvEJLOsnuI2G--168" value="Logstash" style="shape=delay;whiteSpace=wrap;html=1;dashed=1;gradientColor=none;" vertex="1" parent="1">
          <mxGeometry x="553" y="1798" width="80" height="40" as="geometry" />
        </mxCell>
        <mxCell id="lGFkhYDXvEJLOsnuI2G--169" value="" style="endArrow=classic;html=1;entryX=0.75;entryY=0;entryDx=0;entryDy=0;" edge="1" parent="1" target="lGFkhYDXvEJLOsnuI2G--166">
          <mxGeometry width="50" height="50" relative="1" as="geometry">
            <mxPoint x="744" y="1378.94" as="sourcePoint" />
            <mxPoint x="540" y="1380.94" as="targetPoint" />
          </mxGeometry>
        </mxCell>
        <mxCell id="lGFkhYDXvEJLOsnuI2G--170" value="多条件查询" style="edgeLabel;html=1;align=center;verticalAlign=middle;resizable=0;points=[];" vertex="1" connectable="0" parent="lGFkhYDXvEJLOsnuI2G--169">
          <mxGeometry x="-0.2187" y="2" relative="1" as="geometry">
            <mxPoint as="offset" />
          </mxGeometry>
        </mxCell>
        <mxCell id="lGFkhYDXvEJLOsnuI2G--171" value="元数据&lt;br&gt;HBase" style="text;html=1;strokeColor=none;fillColor=none;align=center;verticalAlign=middle;whiteSpace=wrap;rounded=0;dashed=1;" vertex="1" parent="1">
          <mxGeometry x="297" y="1536.94" width="110" height="47" as="geometry" />
        </mxCell>
        <mxCell id="lGFkhYDXvEJLOsnuI2G--172" value="元数据索引信息&lt;br&gt;ElasticSearch" style="text;html=1;strokeColor=none;fillColor=none;align=center;verticalAlign=middle;whiteSpace=wrap;rounded=0;dashed=1;" vertex="1" parent="1">
          <mxGeometry x="661" y="1536.94" width="110" height="28" as="geometry" />
        </mxCell>
        <mxCell id="lGFkhYDXvEJLOsnuI2G--173" value="" style="endArrow=classic;html=1;" edge="1" parent="1">
          <mxGeometry width="50" height="50" relative="1" as="geometry">
            <mxPoint x="217" y="1364.9399999999998" as="sourcePoint" />
            <mxPoint x="217" y="1442.94" as="targetPoint" />
          </mxGeometry>
        </mxCell>
        <mxCell id="lGFkhYDXvEJLOsnuI2G--174" value="写入" style="edgeLabel;html=1;align=center;verticalAlign=middle;resizable=0;points=[];" vertex="1" connectable="0" parent="lGFkhYDXvEJLOsnuI2G--173">
          <mxGeometry x="-0.2187" y="2" relative="1" as="geometry">
            <mxPoint x="-24" y="-1" as="offset" />
          </mxGeometry>
        </mxCell>
        <mxCell id="lGFkhYDXvEJLOsnuI2G--175" value="" style="rounded=1;whiteSpace=wrap;html=1;fillColor=none;dashed=1;" vertex="1" parent="1">
          <mxGeometry x="954" y="1520.94" width="347" height="238" as="geometry" />
        </mxCell>
        <mxCell id="lGFkhYDXvEJLOsnuI2G--176" style="edgeStyle=orthogonalEdgeStyle;rounded=0;orthogonalLoop=1;jettySize=auto;html=1;exitX=0.5;exitY=0;exitDx=0;exitDy=0;entryX=0.5;entryY=1;entryDx=0;entryDy=0;" edge="1" parent="1" source="lGFkhYDXvEJLOsnuI2G--177" target="lGFkhYDXvEJLOsnuI2G--185">
          <mxGeometry relative="1" as="geometry" />
        </mxCell>
        <mxCell id="lGFkhYDXvEJLOsnuI2G--177" value="离线分析存储&lt;br&gt;Hive" style="shape=datastore;whiteSpace=wrap;html=1;fillColor=none;" vertex="1" parent="1">
          <mxGeometry x="984" y="1610.94" width="128" height="84" as="geometry" />
        </mxCell>
        <mxCell id="lGFkhYDXvEJLOsnuI2G--178" value="大数据分析存储" style="text;html=1;strokeColor=none;fillColor=none;align=center;verticalAlign=middle;whiteSpace=wrap;rounded=0;dashed=1;" vertex="1" parent="1">
          <mxGeometry x="1066" y="1533.94" width="110" height="20" as="geometry" />
        </mxCell>
        <mxCell id="lGFkhYDXvEJLOsnuI2G--179" style="edgeStyle=orthogonalEdgeStyle;rounded=0;orthogonalLoop=1;jettySize=auto;html=1;exitX=1;exitY=0.5;exitDx=0;exitDy=0;entryX=0.5;entryY=1;entryDx=0;entryDy=0;" edge="1" parent="1" source="lGFkhYDXvEJLOsnuI2G--180" target="lGFkhYDXvEJLOsnuI2G--175">
          <mxGeometry relative="1" as="geometry" />
        </mxCell>
        <mxCell id="lGFkhYDXvEJLOsnuI2G--180" value="ETL" style="shape=delay;whiteSpace=wrap;html=1;dashed=1;gradientColor=none;" vertex="1" parent="1">
          <mxGeometry x="960" y="1867.94" width="80" height="40" as="geometry" />
        </mxCell>
        <mxCell id="lGFkhYDXvEJLOsnuI2G--181" style="edgeStyle=orthogonalEdgeStyle;rounded=0;orthogonalLoop=1;jettySize=auto;html=1;exitX=0.5;exitY=0;exitDx=0;exitDy=0;entryX=0.5;entryY=1;entryDx=0;entryDy=0;" edge="1" parent="1" source="lGFkhYDXvEJLOsnuI2G--182" target="lGFkhYDXvEJLOsnuI2G--188">
          <mxGeometry relative="1" as="geometry" />
        </mxCell>
        <mxCell id="lGFkhYDXvEJLOsnuI2G--182" value="在线分析存储&lt;br&gt;ClickHouse" style="shape=datastore;whiteSpace=wrap;html=1;fillColor=none;" vertex="1" parent="1">
          <mxGeometry x="1148" y="1610.94" width="128" height="84" as="geometry" />
        </mxCell>
        <mxCell id="lGFkhYDXvEJLOsnuI2G--183" style="edgeStyle=orthogonalEdgeStyle;rounded=0;orthogonalLoop=1;jettySize=auto;html=1;exitX=0.25;exitY=0;exitDx=0;exitDy=0;" edge="1" parent="1" source="lGFkhYDXvEJLOsnuI2G--185">
          <mxGeometry relative="1" as="geometry">
            <mxPoint x="1017.7647058823532" y="1375.0576470588237" as="targetPoint" />
          </mxGeometry>
        </mxCell>
        <mxCell id="lGFkhYDXvEJLOsnuI2G--184" value="结果集" style="edgeLabel;html=1;align=center;verticalAlign=middle;resizable=0;points=[];" vertex="1" connectable="0" parent="lGFkhYDXvEJLOsnuI2G--183">
          <mxGeometry x="0.0052" y="4" relative="1" as="geometry">
            <mxPoint x="2" y="4" as="offset" />
          </mxGeometry>
        </mxCell>
        <mxCell id="lGFkhYDXvEJLOsnuI2G--185" value="离线大数据查询" style="shape=trapezoid;perimeter=trapezoidPerimeter;whiteSpace=wrap;html=1;fixedSize=1;fillColor=none;gradientColor=none;" vertex="1" parent="1">
          <mxGeometry x="988" y="1442.94" width="120" height="35" as="geometry" />
        </mxCell>
        <mxCell id="lGFkhYDXvEJLOsnuI2G--186" style="edgeStyle=orthogonalEdgeStyle;rounded=0;orthogonalLoop=1;jettySize=auto;html=1;exitX=0.25;exitY=0;exitDx=0;exitDy=0;" edge="1" parent="1" source="lGFkhYDXvEJLOsnuI2G--188">
          <mxGeometry relative="1" as="geometry">
            <mxPoint x="1182.4705882352941" y="1376.2341176470588" as="targetPoint" />
          </mxGeometry>
        </mxCell>
        <mxCell id="lGFkhYDXvEJLOsnuI2G--187" value="结果集" style="edgeLabel;html=1;align=center;verticalAlign=middle;resizable=0;points=[];" vertex="1" connectable="0" parent="lGFkhYDXvEJLOsnuI2G--186">
          <mxGeometry x="0.0053" y="-4" relative="1" as="geometry">
            <mxPoint x="-3" y="5" as="offset" />
          </mxGeometry>
        </mxCell>
        <mxCell id="lGFkhYDXvEJLOsnuI2G--188" value="实时大数据查询" style="shape=trapezoid;perimeter=trapezoidPerimeter;whiteSpace=wrap;html=1;fixedSize=1;fillColor=none;gradientColor=none;" vertex="1" parent="1">
          <mxGeometry x="1152" y="1442.94" width="120" height="35" as="geometry" />
        </mxCell>
        <mxCell id="lGFkhYDXvEJLOsnuI2G--189" value="" style="endArrow=classic;html=1;entryX=0.75;entryY=0;entryDx=0;entryDy=0;" edge="1" parent="1">
          <mxGeometry width="50" height="50" relative="1" as="geometry">
            <mxPoint x="1073.9999999999995" y="1378.94" as="sourcePoint" />
            <mxPoint x="1073.9999999999995" y="1442.94" as="targetPoint" />
          </mxGeometry>
        </mxCell>
        <mxCell id="lGFkhYDXvEJLOsnuI2G--190" value="多条件查询" style="edgeLabel;html=1;align=center;verticalAlign=middle;resizable=0;points=[];" vertex="1" connectable="0" parent="lGFkhYDXvEJLOsnuI2G--189">
          <mxGeometry x="-0.2187" y="2" relative="1" as="geometry">
            <mxPoint as="offset" />
          </mxGeometry>
        </mxCell>
        <mxCell id="lGFkhYDXvEJLOsnuI2G--191" value="" style="endArrow=classic;html=1;entryX=0.75;entryY=0;entryDx=0;entryDy=0;" edge="1" parent="1">
          <mxGeometry width="50" height="50" relative="1" as="geometry">
            <mxPoint x="1243.9999999999995" y="1372.82" as="sourcePoint" />
            <mxPoint x="1243.9999999999995" y="1436.8200000000002" as="targetPoint" />
          </mxGeometry>
        </mxCell>
        <mxCell id="lGFkhYDXvEJLOsnuI2G--192" value="多条件查询" style="edgeLabel;html=1;align=center;verticalAlign=middle;resizable=0;points=[];" vertex="1" connectable="0" parent="lGFkhYDXvEJLOsnuI2G--191">
          <mxGeometry x="-0.2187" y="2" relative="1" as="geometry">
            <mxPoint as="offset" />
          </mxGeometry>
        </mxCell>
        <mxCell id="lGFkhYDXvEJLOsnuI2G--194" value="" style="rounded=1;whiteSpace=wrap;html=1;fillColor=none;dashed=1;" vertex="1" parent="1">
          <mxGeometry x="275" y="2130" width="434" height="238" as="geometry" />
        </mxCell>
        <mxCell id="lGFkhYDXvEJLOsnuI2G--197" style="edgeStyle=orthogonalEdgeStyle;rounded=0;orthogonalLoop=1;jettySize=auto;html=1;exitX=0.5;exitY=1;exitDx=0;exitDy=0;" edge="1" parent="1" source="lGFkhYDXvEJLOsnuI2G--199">
          <mxGeometry relative="1" as="geometry">
            <mxPoint x="413.5294117647061" y="2266" as="targetPoint" />
          </mxGeometry>
        </mxCell>
        <mxCell id="lGFkhYDXvEJLOsnuI2G--198" style="edgeStyle=orthogonalEdgeStyle;rounded=0;orthogonalLoop=1;jettySize=auto;html=1;exitX=0.5;exitY=1;exitDx=0;exitDy=0;entryX=0.5;entryY=0;entryDx=0;entryDy=0;entryPerimeter=0;" edge="1" parent="1" source="lGFkhYDXvEJLOsnuI2G--199">
          <mxGeometry relative="1" as="geometry">
            <mxPoint x="530.5" y="2266" as="targetPoint" />
          </mxGeometry>
        </mxCell>
        <mxCell id="lGFkhYDXvEJLOsnuI2G--199" value="元信息DB" style="shape=datastore;whiteSpace=wrap;html=1;fillColor=none;" vertex="1" parent="1">
          <mxGeometry x="437" y="2156" width="90" height="50" as="geometry" />
        </mxCell>
        <mxCell id="lGFkhYDXvEJLOsnuI2G--201" value="Table" style="shape=note;whiteSpace=wrap;html=1;backgroundOutline=1;darkOpacity=0.05;size=15;" vertex="1" parent="1">
          <mxGeometry x="380" y="2265" width="60" height="59" as="geometry" />
        </mxCell>
        <mxCell id="lGFkhYDXvEJLOsnuI2G--202" value="Table" style="shape=note;whiteSpace=wrap;html=1;backgroundOutline=1;darkOpacity=0.05;size=15;" vertex="1" parent="1">
          <mxGeometry x="502" y="2265" width="60" height="59" as="geometry" />
        </mxCell>
        <mxCell id="lGFkhYDXvEJLOsnuI2G--203" style="edgeStyle=orthogonalEdgeStyle;rounded=0;orthogonalLoop=1;jettySize=auto;html=1;exitX=0.5;exitY=0;exitDx=0;exitDy=0;" edge="1" parent="1" source="lGFkhYDXvEJLOsnuI2G--206">
          <mxGeometry relative="1" as="geometry">
            <mxPoint x="481.9999999999998" y="1966" as="targetPoint" />
          </mxGeometry>
        </mxCell>
        <mxCell id="lGFkhYDXvEJLOsnuI2G--204" value="元信息" style="edgeLabel;html=1;align=center;verticalAlign=middle;resizable=0;points=[];" vertex="1" connectable="0" parent="lGFkhYDXvEJLOsnuI2G--203">
          <mxGeometry x="0.2658" y="2" relative="1" as="geometry">
            <mxPoint as="offset" />
          </mxGeometry>
        </mxCell>
        <mxCell id="lGFkhYDXvEJLOsnuI2G--205" style="edgeStyle=orthogonalEdgeStyle;rounded=0;orthogonalLoop=1;jettySize=auto;html=1;exitX=0.5;exitY=1;exitDx=0;exitDy=0;entryX=0.5;entryY=0;entryDx=0;entryDy=0;" edge="1" parent="1" source="lGFkhYDXvEJLOsnuI2G--206" target="lGFkhYDXvEJLOsnuI2G--199">
          <mxGeometry relative="1" as="geometry" />
        </mxCell>
        <mxCell id="lGFkhYDXvEJLOsnuI2G--206" value="DB Proxy" style="shape=trapezoid;perimeter=trapezoidPerimeter;whiteSpace=wrap;html=1;fixedSize=1;fillColor=none;gradientColor=none;" vertex="1" parent="1">
          <mxGeometry x="422" y="2045" width="120" height="35" as="geometry" />
        </mxCell>
        <mxCell id="lGFkhYDXvEJLOsnuI2G--209" style="edgeStyle=orthogonalEdgeStyle;rounded=0;orthogonalLoop=1;jettySize=auto;html=1;exitX=1;exitY=0.5;exitDx=0;exitDy=0;entryX=0;entryY=0.5;entryDx=0;entryDy=0;" edge="1" parent="1" source="lGFkhYDXvEJLOsnuI2G--243" target="lGFkhYDXvEJLOsnuI2G--230">
          <mxGeometry relative="1" as="geometry" />
        </mxCell>
        <mxCell id="lGFkhYDXvEJLOsnuI2G--223" value="" style="endArrow=classic;html=1;" edge="1" parent="1">
          <mxGeometry width="50" height="50" relative="1" as="geometry">
            <mxPoint x="454" y="1966.9999999999995" as="sourcePoint" />
            <mxPoint x="454" y="2045" as="targetPoint" />
          </mxGeometry>
        </mxCell>
        <mxCell id="lGFkhYDXvEJLOsnuI2G--224" value="写入" style="edgeLabel;html=1;align=center;verticalAlign=middle;resizable=0;points=[];" vertex="1" connectable="0" parent="lGFkhYDXvEJLOsnuI2G--223">
          <mxGeometry x="-0.2187" y="2" relative="1" as="geometry">
            <mxPoint x="-24" y="-1" as="offset" />
          </mxGeometry>
        </mxCell>
        <mxCell id="lGFkhYDXvEJLOsnuI2G--225" value="" style="rounded=1;whiteSpace=wrap;html=1;fillColor=none;dashed=1;" vertex="1" parent="1">
          <mxGeometry x="951" y="2130" width="347" height="238" as="geometry" />
        </mxCell>
        <mxCell id="lGFkhYDXvEJLOsnuI2G--226" style="edgeStyle=orthogonalEdgeStyle;rounded=0;orthogonalLoop=1;jettySize=auto;html=1;exitX=0.5;exitY=0;exitDx=0;exitDy=0;entryX=0.5;entryY=1;entryDx=0;entryDy=0;" edge="1" parent="1" source="lGFkhYDXvEJLOsnuI2G--227" target="lGFkhYDXvEJLOsnuI2G--235">
          <mxGeometry relative="1" as="geometry" />
        </mxCell>
        <mxCell id="lGFkhYDXvEJLOsnuI2G--227" value="离线分析存储&lt;br&gt;Hive" style="shape=datastore;whiteSpace=wrap;html=1;fillColor=none;" vertex="1" parent="1">
          <mxGeometry x="981" y="2220" width="128" height="84" as="geometry" />
        </mxCell>
        <mxCell id="lGFkhYDXvEJLOsnuI2G--228" value="大数据分析存储" style="text;html=1;strokeColor=none;fillColor=none;align=center;verticalAlign=middle;whiteSpace=wrap;rounded=0;dashed=1;" vertex="1" parent="1">
          <mxGeometry x="1063" y="2143" width="110" height="20" as="geometry" />
        </mxCell>
        <mxCell id="lGFkhYDXvEJLOsnuI2G--229" style="edgeStyle=orthogonalEdgeStyle;rounded=0;orthogonalLoop=1;jettySize=auto;html=1;exitX=1;exitY=0.5;exitDx=0;exitDy=0;entryX=0.5;entryY=1;entryDx=0;entryDy=0;" edge="1" parent="1" source="lGFkhYDXvEJLOsnuI2G--230" target="lGFkhYDXvEJLOsnuI2G--225">
          <mxGeometry relative="1" as="geometry" />
        </mxCell>
        <mxCell id="lGFkhYDXvEJLOsnuI2G--230" value="ETL" style="shape=delay;whiteSpace=wrap;html=1;dashed=1;gradientColor=none;" vertex="1" parent="1">
          <mxGeometry x="908" y="2476" width="80" height="40" as="geometry" />
        </mxCell>
        <mxCell id="lGFkhYDXvEJLOsnuI2G--231" style="edgeStyle=orthogonalEdgeStyle;rounded=0;orthogonalLoop=1;jettySize=auto;html=1;exitX=0.5;exitY=0;exitDx=0;exitDy=0;entryX=0.5;entryY=1;entryDx=0;entryDy=0;" edge="1" parent="1" source="lGFkhYDXvEJLOsnuI2G--232" target="lGFkhYDXvEJLOsnuI2G--238">
          <mxGeometry relative="1" as="geometry" />
        </mxCell>
        <mxCell id="lGFkhYDXvEJLOsnuI2G--232" value="在线分析存储&lt;br&gt;ClickHouse" style="shape=datastore;whiteSpace=wrap;html=1;fillColor=none;" vertex="1" parent="1">
          <mxGeometry x="1145" y="2220" width="128" height="84" as="geometry" />
        </mxCell>
        <mxCell id="lGFkhYDXvEJLOsnuI2G--233" style="edgeStyle=orthogonalEdgeStyle;rounded=0;orthogonalLoop=1;jettySize=auto;html=1;exitX=0.25;exitY=0;exitDx=0;exitDy=0;" edge="1" parent="1" source="lGFkhYDXvEJLOsnuI2G--235">
          <mxGeometry relative="1" as="geometry">
            <mxPoint x="1014.7647058823532" y="1984.1176470588239" as="targetPoint" />
          </mxGeometry>
        </mxCell>
        <mxCell id="lGFkhYDXvEJLOsnuI2G--234" value="结果集" style="edgeLabel;html=1;align=center;verticalAlign=middle;resizable=0;points=[];" vertex="1" connectable="0" parent="lGFkhYDXvEJLOsnuI2G--233">
          <mxGeometry x="0.0052" y="4" relative="1" as="geometry">
            <mxPoint x="2" y="4" as="offset" />
          </mxGeometry>
        </mxCell>
        <mxCell id="lGFkhYDXvEJLOsnuI2G--235" value="离线大数据查询" style="shape=trapezoid;perimeter=trapezoidPerimeter;whiteSpace=wrap;html=1;fixedSize=1;fillColor=none;gradientColor=none;" vertex="1" parent="1">
          <mxGeometry x="985" y="2052" width="120" height="35" as="geometry" />
        </mxCell>
        <mxCell id="lGFkhYDXvEJLOsnuI2G--236" style="edgeStyle=orthogonalEdgeStyle;rounded=0;orthogonalLoop=1;jettySize=auto;html=1;exitX=0.25;exitY=0;exitDx=0;exitDy=0;" edge="1" parent="1" source="lGFkhYDXvEJLOsnuI2G--238">
          <mxGeometry relative="1" as="geometry">
            <mxPoint x="1179.4705882352941" y="1985.294117647059" as="targetPoint" />
          </mxGeometry>
        </mxCell>
        <mxCell id="lGFkhYDXvEJLOsnuI2G--237" value="结果集" style="edgeLabel;html=1;align=center;verticalAlign=middle;resizable=0;points=[];" vertex="1" connectable="0" parent="lGFkhYDXvEJLOsnuI2G--236">
          <mxGeometry x="0.0053" y="-4" relative="1" as="geometry">
            <mxPoint x="-3" y="5" as="offset" />
          </mxGeometry>
        </mxCell>
        <mxCell id="lGFkhYDXvEJLOsnuI2G--238" value="实时大数据查询" style="shape=trapezoid;perimeter=trapezoidPerimeter;whiteSpace=wrap;html=1;fixedSize=1;fillColor=none;gradientColor=none;" vertex="1" parent="1">
          <mxGeometry x="1149" y="2052" width="120" height="35" as="geometry" />
        </mxCell>
        <mxCell id="lGFkhYDXvEJLOsnuI2G--239" value="" style="endArrow=classic;html=1;entryX=0.75;entryY=0;entryDx=0;entryDy=0;" edge="1" parent="1">
          <mxGeometry width="50" height="50" relative="1" as="geometry">
            <mxPoint x="1070.9999999999995" y="1988" as="sourcePoint" />
            <mxPoint x="1070.9999999999995" y="2052" as="targetPoint" />
          </mxGeometry>
        </mxCell>
        <mxCell id="lGFkhYDXvEJLOsnuI2G--240" value="多条件查询" style="edgeLabel;html=1;align=center;verticalAlign=middle;resizable=0;points=[];" vertex="1" connectable="0" parent="lGFkhYDXvEJLOsnuI2G--239">
          <mxGeometry x="-0.2187" y="2" relative="1" as="geometry">
            <mxPoint as="offset" />
          </mxGeometry>
        </mxCell>
        <mxCell id="lGFkhYDXvEJLOsnuI2G--241" value="" style="endArrow=classic;html=1;entryX=0.75;entryY=0;entryDx=0;entryDy=0;" edge="1" parent="1">
          <mxGeometry width="50" height="50" relative="1" as="geometry">
            <mxPoint x="1240.9999999999995" y="1981.8799999999997" as="sourcePoint" />
            <mxPoint x="1240.9999999999995" y="2045.88" as="targetPoint" />
          </mxGeometry>
        </mxCell>
        <mxCell id="lGFkhYDXvEJLOsnuI2G--242" value="多条件查询" style="edgeLabel;html=1;align=center;verticalAlign=middle;resizable=0;points=[];" vertex="1" connectable="0" parent="lGFkhYDXvEJLOsnuI2G--241">
          <mxGeometry x="-0.2187" y="2" relative="1" as="geometry">
            <mxPoint as="offset" />
          </mxGeometry>
        </mxCell>
        <mxCell id="lGFkhYDXvEJLOsnuI2G--243" value="MQ" style="shape=delay;whiteSpace=wrap;html=1;dashed=1;gradientColor=none;" vertex="1" parent="1">
          <mxGeometry x="640" y="2476" width="80" height="40" as="geometry" />
        </mxCell>
        <mxCell id="lGFkhYDXvEJLOsnuI2G--244" style="edgeStyle=orthogonalEdgeStyle;rounded=0;orthogonalLoop=1;jettySize=auto;html=1;exitX=0.5;exitY=1;exitDx=0;exitDy=0;entryX=0;entryY=0.5;entryDx=0;entryDy=0;" edge="1" parent="1" source="lGFkhYDXvEJLOsnuI2G--194" target="lGFkhYDXvEJLOsnuI2G--243">
          <mxGeometry relative="1" as="geometry">
            <mxPoint x="492" y="2368.0000000000005" as="sourcePoint" />
            <mxPoint x="908" y="2496" as="targetPoint" />
          </mxGeometry>
        </mxCell>
        <mxCell id="lGFkhYDXvEJLOsnuI2G--245" value="MQ" style="shape=delay;whiteSpace=wrap;html=1;dashed=1;gradientColor=none;" vertex="1" parent="1">
          <mxGeometry x="400" y="1798" width="80" height="40" as="geometry" />
        </mxCell>
        <mxCell id="lGFkhYDXvEJLOsnuI2G--246" style="edgeStyle=orthogonalEdgeStyle;rounded=0;orthogonalLoop=1;jettySize=auto;html=1;exitX=0.5;exitY=1;exitDx=0;exitDy=0;entryX=0;entryY=0.5;entryDx=0;entryDy=0;" edge="1" parent="1" source="lGFkhYDXvEJLOsnuI2G--160" target="lGFkhYDXvEJLOsnuI2G--245">
          <mxGeometry relative="1" as="geometry">
            <mxPoint x="255.00000000000023" y="1765.94" as="sourcePoint" />
            <mxPoint x="553" y="1817.9999999999995" as="targetPoint" />
          </mxGeometry>
        </mxCell>
        <mxCell id="lGFkhYDXvEJLOsnuI2G--247" value="MQ" style="shape=delay;whiteSpace=wrap;html=1;dashed=1;gradientColor=none;" vertex="1" parent="1">
          <mxGeometry x="397" y="1867.94" width="80" height="40" as="geometry" />
        </mxCell>
        <mxCell id="lGFkhYDXvEJLOsnuI2G--248" style="edgeStyle=orthogonalEdgeStyle;rounded=0;orthogonalLoop=1;jettySize=auto;html=1;exitX=0.5;exitY=1;exitDx=0;exitDy=0;entryX=0;entryY=0.5;entryDx=0;entryDy=0;" edge="1" parent="1" source="lGFkhYDXvEJLOsnuI2G--160" target="lGFkhYDXvEJLOsnuI2G--247">
          <mxGeometry relative="1" as="geometry">
            <mxPoint x="255.00000000000023" y="1765.94" as="sourcePoint" />
            <mxPoint x="695" y="1887.94" as="targetPoint" />
          </mxGeometry>
        </mxCell>
        <mxCell id="lGFkhYDXvEJLOsnuI2G--249" value="" style="endArrow=classic;html=1;entryX=0.75;entryY=0;entryDx=0;entryDy=0;" edge="1" parent="1">
          <mxGeometry width="50" height="50" relative="1" as="geometry">
            <mxPoint x="516.9999999999995" y="1980.9999999999995" as="sourcePoint" />
            <mxPoint x="516.9999999999995" y="2045" as="targetPoint" />
          </mxGeometry>
        </mxCell>
        <mxCell id="lGFkhYDXvEJLOsnuI2G--250" value="多条件查询" style="edgeLabel;html=1;align=center;verticalAlign=middle;resizable=0;points=[];" vertex="1" connectable="0" parent="lGFkhYDXvEJLOsnuI2G--249">
          <mxGeometry x="-0.2187" y="2" relative="1" as="geometry">
            <mxPoint x="36" y="7.289999999999999" as="offset" />
          </mxGeometry>
        </mxCell>
        <mxCell id="lGFkhYDXvEJLOsnuI2G--251" value="元数据&lt;br&gt;OceanBase/TiDB等" style="text;html=1;strokeColor=none;fillColor=none;align=center;verticalAlign=middle;whiteSpace=wrap;rounded=0;dashed=1;" vertex="1" parent="1">
          <mxGeometry x="554" y="2148" width="136" height="47" as="geometry" />
        </mxCell>
      </root>
    </mxGraphModel>
  </diagram>
</mxfile>
